<svg xmlns="http://www.w3.org/2000/svg" viewBox="0 0 136.245 32.964" width="136" hidden="32">
    <g data-name="Groupe 1697">
        <g data-name="Groupe 1452" fill="#FFFFFF">
            <path data-name="Tracé 2015" d="M136.245 5.879L130.369 0l-7.841 7.836L114.694 0l-5.871 5.879 7.829 7.832-7.829 7.842 5.871 5.875 7.835-7.837 7.841 7.837 5.876-5.875-7.841-7.842z"></path>
            <path data-name="Tracé 2016" d="M27.511 2.861a2.825 2.825 0 11-.828-2.019 2.746 2.746 0 01.828 2.019m-5.163 4.666h4.666v18.336h-4.67z"></path>
            <path data-name="Tracé 2017" d="M88.423 12.907c0-4.027 3.727-5.607 7.119-5.607a8.336 8.336 0 015.343 1.6 6.3 6.3 0 012.187 3.01l-4.139 1.185a3.551 3.551 0 00-3.49-2.168c-1.522 0-2.482.7-2.482 1.872 0 1.662 2.307 1.9 5.69 2.7 4.412 1.036 4.542 3.773 4.542 5.026 0 3.547-3.459 5.573-7.437 5.573-4.148 0-7.123-2.049-7.715-4.649l4.549-1.287a3.367 3.367 0 003.248 2.309c2.292 0 2.816-1.361 2.816-1.988 0-1.687-2.364-1.768-5.751-2.7-1.641-.452-4.481-1.79-4.481-4.877"></path>
            <path data-name="Tracé 2018" d="M4.496 7.552v2.468a7.653 7.653 0 015.568-2.731c4.843 0 8.675 3.6 8.675 9.28 0 5.53-3.6 9.516-8.675 9.516a8.155 8.155 0 01-5.568-2.579v9.457h-4.5V7.552zm-.078 9.153a4.969 4.969 0 109.921 0 4.972 4.972 0 10-9.921 0"></path>
            <path data-name="Tracé 2019" d="M46.574 7.525l-5.957 8.969 5.924 9.366h-5.23l-3.508-5.527-3.376 5.527h-4.7l5.924-8.936-5.924-9.4h5.229l3.508 5.56 3.376-5.56z"></path>
            <path data-name="Rectangle 203" d="M69.906 1.371h4.666v24.491h-4.666z"></path>
            <path data-name="Tracé 2020" d="M84.7 2.861a2.826 2.826 0 11-.828-2.019 2.747 2.747 0 01.828 2.019m-5.163 4.666h4.666v18.336h-4.666z"></path>
            <path data-name="Tracé 2021" d="M57.533 26.123c-4.719 0-9.569-3.06-9.569-9.465 0-7.163 5.195-9.4 9.085-9.4 7.1 0 9.184 5.378 9.184 9.168a11.394 11.394 0 01-.132 1.788H52.73c.335 3.436 3.612 3.971 4.8 3.971a4.339 4.339 0 003.681-1.986l4.277 1.679a8.873 8.873 0 01-7.958 4.246m-.468-14.926a4.182 4.182 0 00-4.336 4h8.671a4.127 4.127 0 00-4.336-4"></path>
        </g>
    </g>
</svg>